# xmcd
#
# Track frame offsets: 
#        150
#        17770
#        42632
#        58210
#        78830
#        99945
#        116152
#
# Disc length: 1917 seconds
#
# Revision: 0
# Processed by: cddbd v1.5.2PL0 Copyright (c) Steve Scherf et al.
# Submitted via: ExactAudioCopy v0.95b4
#
DISCID=56077b07
DTITLE=Gwen McCrae - Melody Of Life
DYEAR=1979
DGENRE=Soul
TTITLE0=All This Love That I'm Giving
TTITLE1=I Can Only Think Of You
TTITLE2=Maybe I'll Find Somebody New
TTITLE3=I Found A New Love
TTITLE4=The Joy
TTITLE5=Ease The Pain
TTITLE6=The Melody Of Life
EXTD=
EXTT0=
EXTT1=
EXTT2=
EXTT3=
EXTT4=
EXTT5=
EXTT6=
PLAYORDER=
